<svg xmlns="http://www.w3.org/2000/svg" viewBox="0 0 496.97 557.41"><defs><style>.cls-1,.cls-6{fill:#2d2d44;}.cls-2,.cls-3{fill:#fff;}.cls-2{stroke:#1d1d1b;stroke-miterlimit:10;}.cls-4{fill:#b3b3b3;}.cls-5{fill:#1b1a2e;}.cls-6{font-size:100px;font-family:Archivo-Black, Archivo Black;font-weight:800;}.cls-7{letter-spacing:-0.02em;}</style></defs><g id="fond"><rect class="cls-1" x="91.66" y="108.7" width="439.19" height="439.19" rx="12" transform="translate(-77.58 530.85) rotate(-90)"/></g><g id="paper_plane" data-name="paper plane"><path class="cls-2" d="M180.55,236.29" transform="translate(-60.55 -108.7)"/><path class="cls-2" d="M498,148.81" transform="translate(-60.55 -108.7)"/><path class="cls-3" d="M260.43,206.84a3.82,3.82,0,0,1,.26-7.27l226.46-64.84a14.13,14.13,0,0,1,3.33-.62c2.71-.05,5.2,3.95,2.91,6.66L383.27,322.59c-2.73,3.77-7.27,1.25-9-2.56L342,242.11c-.08-1-2.09,1.2-.55-1.38L349,259c-.77.41-26.81,12.49-26.2,11.86l6.32-38.73" transform="translate(-60.55 -108.7)"/></g><g id="ombre_pli" data-name="ombre pli"><polygon class="cls-4" points="262.16 162.29 288.8 151.15 280.61 131.89 262.16 162.29"/></g><g id="pli"><path class="cls-5" d="M474.47,149l0,0c1.05-.67,2.05,1,1,1.64L341.36,240.47l-.2.12L322.71,271c.1-.54.2-1.21.37-2.32l.05-.29L328.85,232" transform="translate(-60.55 -108.7)"/></g><g id="roll"><path class="cls-4" d="M406.71,317.23a1.13,1.13,0,0,1,1.05,1.2c-2.55,38.76-9.62,68.38-21,88.06-7.09,12.25-15.7,20.4-25.59,24.23-9.23,3.57-19.71,3.91-31.29,1,0,0,0,0,0,0,1,26.91-3.62,49.58-19.15,59-18.85,11.49-46.44-.58-66.26-12.74-23.09-14.15-47.72-35.77-65.87-57.81C154.87,391.48,138.7,357.45,130.45,319a3.55,3.55,0,0,1,2.78-4.21l.86-.17a3.58,3.58,0,0,1,4.2,2.78c8,37.13,23.6,70,46.44,97.73,17.63,21.4,41.51,42.37,63.88,56.08,25.33,15.54,45.9,20,57.92,12.73,11.52-7,16.58-26.1,15.11-54.74h0q-4.17-1.51-8.52-3.55C263.19,402.35,208,333.25,184.83,264.92c-4.92-14.46-11.22-37.22-14.19-57.72-3.71-25.66-1.2-40.27,7.67-44.7,4.35-2.17,10-1.7,16.75,1.39,33.63,15.35,97.9,97.65,122.07,191.65,5.58,21.68,10.52,45.77,12.22,67.77h0c10.94,3.16,20.63,3.14,28.9-.06,13.27-5.14,41.71-25.3,47-104.77a1.35,1.35,0,0,1,1.42-1.26ZM177,187.14a133.7,133.7,0,0,0,1.58,18.91c2.89,20,9,42.17,13.84,56.3C215,328.83,268.34,395.93,316.49,418.41l4.53,2.12c-1.62-17.94-5.49-39.1-11.64-63C298.71,316,278.69,272.38,253,234.65c-21.63-31.78-45.11-56.1-61.27-63.49-4.33-2-7.83-2.51-9.86-1.5C180.49,170.35,177,173.47,177,187.14Z" transform="translate(-60.55 -108.7)"/></g><g id="ombre_droite" data-name="ombre droite"><path class="cls-1" d="M329.36,423.21l.5,8.63,1.56.38s-.38-8.06-.46-8.56Z" transform="translate(-60.55 -108.7)"/></g><g id="barrel_titre_-_copie" data-name="barrel titre - copie"><text class="cls-6" transform="translate(24.29 530.71)"><tspan class="cls-7">B</tspan><tspan x="76.1" y="0">ARREL</tspan></text></g></svg>